<svg width="541" height="541" viewBox="0 0 541 541" fill="none" xmlns="http://www.w3.org/2000/svg">
<g clip-path="url(#clip0_17_57)">
<path d="M541 0H0V541H541V0Z" fill="#907BF6"/>
<path d="M419.6 291.9C421.1 291.5 422.6 291.2 424.2 290.9C424.2 287.5 423.9 284 423.2 280.6C422.4 284.5 421.2 288.3 419.6 291.9Z" fill="#7168C7"/>
<path d="M158.8 304.5C161.7 301.1 165.2 298.3 169 296.1C169.2 295 169.5 293.9 169.8 292.8C132.9 290.5 105.8 270.9 92.2 252.3C77.5 232.3 74.3 211.2 74 208.9L73.9 207.8C73.7 206 73.6 204.1 73.6 201.9V221.6C73.6 223.8 73.8 225.7 73.9 227.5L74 228.6C74.3 230.9 77.4 252 92.2 272C103.8 287.9 125.4 304.6 154.5 310.5C155.8 308.4 157.2 306.4 158.8 304.5Z" fill="#7168C7"/>
<path d="M395.1 187.4C391.5 193.6 391.4 201.2 394.9 207.4C395 207.3 395 207.2 395.1 207.1L414.8 173.7C421.6 162.4 423.5 149.5 421.2 137.4C420.1 143.1 418 148.7 414.8 154L395.1 187.4Z" fill="#7168C7"/>
<path d="M401 458.1H390.7C377.2 458.1 365.5 449.8 360.7 438C345.6 450.9 326.1 458.6 304.7 458.6C279.7 458.6 257.2 447.9 241.4 430.9C237.4 444.5 226 454.8 211.8 457.3C209.7 457.7 207.5 457.8 205.4 457.8C196.5 457.8 187.9 454.7 181 448.8C172.6 441.6 167.8 431.1 167.9 420V439.7C167.8 450.8 172.6 461.2 181 468.5C187.9 474.4 196.5 477.5 205.4 477.5C207.5 477.5 209.7 477.3 211.8 477C226 474.6 237.4 464.2 241.4 450.6C257.2 467.6 279.7 478.3 304.7 478.3C326 478.3 345.6 470.5 360.7 457.7C365.6 469.5 377.2 477.8 390.7 477.8H401C418.9 477.8 433.5 463.2 433.5 445.3V425.6C433.5 443.5 418.9 458.1 401 458.1Z" fill="#7168C7"/>
<path d="M167.9 361C159.8 356.1 153.7 348.1 151.2 338.8C149.8 344 149.5 349.6 150.4 355.1C152.3 366 158.8 375.3 167.9 380.8V361Z" fill="#7168C7"/>
<path d="M459.5 355.1C453.7 361.2 445.9 364.8 437.5 365.2C435.2 365.3 435.2 365.4 433.5 366.6V386.3C435.1 385.1 435.2 385.1 437.5 384.9C445.9 384.5 453.7 380.9 459.5 374.8C465.3 368.6 468.4 360.6 468.3 352.1V342.5C468.3 340.9 468.2 339.3 467.9 337.7C466.9 344.3 464 350.3 459.5 355.1Z" fill="#7168C7"/>
<path d="M125.2 77.3C111.7 77.5 100.9 88.6 101.1 102.1V210C101.1 211.1 101.2 212.3 101.3 213.4C101.3 213.4 103.4 229.3 114.4 244.2C125.3 259.2 147.7 274 177.9 273.7C208 273.4 229.9 258.5 240.4 243.4C250.9 228.3 252.4 212.4 252.4 212.4C252.5 211.6 252.5 210.8 252.5 210V102.1C252.7 88.6 241.9 77.5 228.4 77.3C214.9 77.1 203.8 87.9 203.6 101.4C203.6 101.6 203.6 101.8 203.6 102.1V208C203.5 208.6 203 211.5 200.2 215.4C197.1 219.8 193.9 224.5 177.4 224.7C161.1 224.9 157.4 220.1 153.9 215.3C150.9 211.3 150.2 208.3 150 207.3V102.1C150.2 88.6 139.4 77.5 125.9 77.3C125.7 77.3 125.4 77.3 125.2 77.3Z" fill="white"/>
<path d="M330.7 116.7C345.115 116.7 356.8 105.015 356.8 90.6C356.8 76.1854 345.115 64.5 330.7 64.5C316.285 64.5 304.6 76.1854 304.6 90.6C304.6 105.015 316.285 116.7 330.7 116.7Z" fill="white"/>
<path d="M393.5 267.3C393.4 267.1 393.3 266.9 393.1 266.7L364 217.4C359.7 210.1 359.7 201.1 364 193.9L391.1 148C397.9 136.8 394.4 122.2 383.2 115.4C379.6 113.2 375.5 112 371.3 111.9C362.6 111.7 354.6 116.3 350.3 123.8L349.4 125.3C340.5 140.4 318.5 140.4 309.6 125.3L308.7 123.8C304.3 116.1 295.9 111.5 287 111.9C273.9 112.5 263.8 123.7 264.5 136.7C264.7 140.7 265.9 144.5 267.9 147.9L296.2 195.8C299.8 201.8 299.8 209.3 296.2 215.3L266 266.7C258.9 278.3 263 293.6 275.3 300.1C286 305.7 299.5 302.2 306.1 292C306.4 291.6 306.6 291.2 306.8 290.8L310.3 284.8C318.9 270.2 340.1 270.2 348.8 284.8L352.3 290.8C358.8 302.2 373.3 306.1 384.6 299.6C395.9 293.1 400 278.6 393.5 267.3Z" fill="white"/>
<path d="M235.8 327.1C235.7 327.1 235.6 327.1 235.5 327.1H215.3V315.8C215.3 315.7 215.3 315.6 215.3 315.5C215.3 315.8 216.5 310.2 219.8 306.4C223.1 302.6 227.5 299.7 235.1 299.7C240.6 299.8 245.2 295.4 245.3 289.9C245.4 284.4 241 279.8 235.5 279.7C235.4 279.7 235.3 279.7 235.2 279.7C221.8 279.6 211.2 285.8 204.8 293.2C198.4 300.5 195.2 308 195.4 316V315.7V327H187.4C181.3 326.9 176.3 332.4 177.4 338.8C178.1 342.9 181.4 346.2 185.5 346.9C186.1 347 186.7 347.1 187.3 347H188.1C192.1 347 195.3 350.2 195.3 354.2V428.3C195.2 434.4 200.7 439.4 207.1 438.3C211.2 437.6 214.5 434.3 215.2 430.2C215.3 429.6 215.4 429 215.3 428.4V353.8C215.3 350.1 218.3 347.1 222 347.1H235.5C241 347.2 245.6 342.8 245.6 337.2C245.8 331.7 241.3 327.2 235.8 327.1Z" fill="white"/>
<path d="M304.6 321.4C272.2 321.4 245.7 347.9 245.7 380.3C245.7 412.7 272.2 439.2 304.6 439.2C337 439.2 363.5 412.7 363.5 380.3C363.5 347.9 337.1 321.4 304.6 321.4ZM304.6 341.4C326.2 341.4 343.5 358.7 343.5 380.3C343.5 401.9 326.2 419.2 304.6 419.2C283 419.2 265.7 401.9 265.7 380.3C265.7 358.7 283 341.4 304.6 341.4Z" fill="white"/>
<path d="M440.7 331C440.7 328.2 438.5 326 435.7 326H430.7C425.1 326 418.5 330 413.7 333.5C413.1 333.9 412 334.8 410.9 335.7C408.9 337.3 405.9 335.9 405.9 333.3V332.4C405.9 329.6 403.7 327.4 400.9 327.4H390.6C387.8 327.4 385.6 329.6 385.6 332.4V433.7C385.6 436.5 387.8 438.7 390.6 438.7H400.9C403.7 438.7 405.9 436.5 405.9 433.7V370.6C405.9 370.2 406 369.7 406.1 369.3C408 362.3 411.6 356.7 417 352.7C423.7 347.7 429 346.3 436 345.9C438.7 345.8 440.8 343.6 440.7 340.9V331Z" fill="white"/>
</g>
<defs>
<clipPath id="clip0_17_57">
<rect width="541" height="541" fill="white"/>
</clipPath>
</defs>
</svg>
