<svg width="416" height="454" viewBox="0 0 416 454" fill="none" xmlns="http://www.w3.org/2000/svg">
<path d="M242.511 317.913C263.638 318.442 280.401 335.537 280.401 356.8L280.389 357.81C279.859 378.936 262.764 395.7 241.502 395.7C220.24 395.7 203.143 378.936 202.614 357.81L202.602 356.8C202.602 335.2 219.902 317.901 241.502 317.9L242.511 317.913Z" fill="#907BF6"/>
<path fill-rule="evenodd" clip-rule="evenodd" d="M268.348 3.50391H268.384L268.421 3.50488C299.096 3.8935 324.528 25.9891 330.076 55.1426C333.351 56.4282 336.526 57.9973 339.562 59.8447C366.078 75.944 375.778 108.74 364.054 136.18L364.432 136.558L337.511 182.15L361.53 222.845C362.416 224.183 363.065 225.334 363.491 226.144C370.303 238.53 372.299 252.161 370.239 265H372.602C396.112 265 415.102 283.989 415.102 307.5V318.15C414.854 339.154 399.545 355.447 380.302 358.878V410.2L380.287 411.299C379.706 434.299 360.945 452.7 337.802 452.7H327.502C314.24 452.7 302.421 446.657 294.636 437.172C279.687 447.092 261.815 452.972 242.628 453.193L241.502 453.2C218.747 453.2 197.8 445.244 181.299 432.006C174.393 441.961 163.778 449.145 151.433 451.56L150.581 451.718C150.576 451.719 150.57 451.719 150.563 451.72L150.564 451.721L150.207 451.783L150.206 451.782L150.128 451.797C148.297 452.103 146.472 452.301 144.662 452.397L143.887 452.433C117.007 453.423 94.8855 431.788 94.7021 405.303V350.825C85.7186 343.721 79.3528 333.424 77.3359 321.611C74.9557 307.69 78.7781 294.61 86.4365 284.646C57.9504 278.155 35.5132 262.094 21.8877 243.989L21.1016 242.929L20.9795 242.762C13.0778 232.002 8.33481 221.204 5.50781 212.938L4.96777 211.319C3.73749 207.539 2.8731 204.214 2.27344 201.56L2.03223 200.464C1.80552 199.404 1.62267 198.464 1.47754 197.659L1.34473 196.9L1.14453 195.66L1.0752 195.186L1.03027 194.851C1.00468 194.658 0.978157 194.463 0.953125 194.274L0.924805 194.06L0.855469 193.297V193.295C0.782427 192.491 0.613143 190.689 0.538086 188.56L0.512695 187.629L0.510742 187.519L0.501953 186.601V78.7197L0.500977 77.9229C0.659946 44.2244 27.7994 16.8042 61.5459 16.3037H61.5479L61.7471 16.3008L61.8242 16.2998H63.0781L63.1553 16.3008L63.3555 16.3037L63.4336 16.3057L64.0967 16.3203H64.125L64.1533 16.3213C84.7835 16.888 102.861 27.5119 113.702 43.4385C124.878 27.0107 143.731 16.2515 165.059 16.2969H165.128L165.794 16.3027L165.864 16.3037L165.934 16.3057L166.597 16.3203H166.625L166.653 16.3213C184.499 16.8115 200.424 24.8265 211.414 37.2783C222.102 17.1809 243.251 3.50035 267.602 3.5H267.661L268.348 3.50391ZM241.502 297.9C209.102 297.901 182.602 324.4 182.602 356.8L182.606 357.559C183.016 389.612 209.355 415.7 241.502 415.7C273.902 415.7 300.401 389.2 300.401 356.8C300.401 324.4 274.002 297.901 241.502 297.9ZM367.074 302.512C361.591 302.75 355.251 306.609 350.602 310C350.001 310.4 348.901 311.3 347.802 312.2C345.802 313.8 342.802 312.4 342.802 309.8V308.9C342.802 306.188 340.737 304.038 338.062 303.906L337.802 303.9H327.502L327.241 303.906C324.567 304.038 322.502 306.188 322.502 308.9V410.2L322.508 410.461C322.635 413.049 324.653 415.066 327.241 415.193L327.502 415.2H337.802L338.062 415.193C340.651 415.066 342.667 413.049 342.795 410.461L342.802 410.2V347.1C342.802 346.7 342.902 346.2 343.002 345.8C344.902 338.8 348.502 333.2 353.901 329.2C360.601 324.201 365.902 322.8 372.901 322.4C375.601 322.3 377.701 320.1 377.602 317.4V307.5C377.602 304.788 375.537 302.639 372.862 302.507L372.602 302.5H367.602L367.074 302.512ZM171.476 256.2C158.372 256.295 148.002 262.416 141.702 269.7C135.302 277 132.102 284.5 132.302 292.5V303.5H124.302C118.202 303.4 113.202 308.9 114.302 315.3C115.002 319.4 118.302 322.7 122.401 323.4L122.852 323.472C123.301 323.537 123.752 323.575 124.202 323.5H125.002C129.002 323.5 132.202 326.7 132.202 330.7V404.9C132.164 410.955 137.637 415.893 144.002 414.8C147.974 414.122 151.194 411.004 152.028 407.082L152.102 406.7C152.202 406.1 152.302 405.5 152.202 404.9V330.3C152.202 326.6 155.202 323.6 158.901 323.6H172.401C177.901 323.699 182.502 319.3 182.502 313.7C182.702 308.2 178.202 303.7 172.702 303.6H152.202L152.205 292.011C152.28 291.943 153.508 286.579 156.702 282.9C159.277 279.936 162.521 277.519 167.433 276.6L169.5 276.42L171.5 276.3C171.752 276.3 173 276.216 173.974 276.039C178.56 275.205 182.114 271.227 182.202 266.4C182.302 260.9 177.901 256.3 172.401 256.2H171.476ZM223.901 88.4004C210.802 89.0008 200.701 100.2 201.401 113.2C201.601 117.2 202.802 121 204.802 124.4L233.102 172.3C236.701 178.3 236.701 185.8 233.102 191.8L202.901 243.2C195.802 254.8 199.903 270.1 212.202 276.6C222.902 282.199 236.402 278.7 243.002 268.5C243.302 268.1 243.502 267.7 243.702 267.3L247.202 261.3C255.802 246.7 277.002 246.7 285.702 261.3L289.202 267.3C295.601 278.521 309.751 282.476 320.97 276.397L321.502 276.1C332.802 269.599 336.901 255.1 330.401 243.8C330.302 243.6 330.202 243.4 330.002 243.2L300.901 193.9C296.736 186.829 296.606 178.161 300.512 171.08L300.901 170.4L328.002 124.5C334.695 113.475 331.408 99.1556 320.621 92.2246L320.102 91.9004C316.502 89.7006 312.402 88.5005 308.202 88.4004C299.503 88.2006 291.502 92.8002 287.202 100.3L286.302 101.8C277.402 116.9 255.402 116.9 246.502 101.8L245.602 100.3C241.202 92.6001 232.801 88.0005 223.901 88.4004ZM165.302 53.7998C151.802 53.6001 140.702 64.4005 140.502 77.9004V184.5C140.402 185.1 139.901 188.001 137.102 191.9L136.516 192.728C133.549 196.87 129.77 201.013 114.302 201.2C99.0211 201.388 94.8129 197.181 91.4629 192.699L90.8018 191.8C87.802 187.8 87.1014 184.8 86.9014 183.8V78.5996C87.1012 65.0999 76.3015 53.9999 62.8018 53.7998H62.1016C48.602 54.0002 37.8022 65.1 38.002 78.5996V186.5L38.0059 186.917C38.0264 187.899 38.1147 188.938 38.2021 189.9L38.3193 190.643C38.8839 193.945 41.7066 207.703 51.3018 220.7C62.2018 235.7 84.6022 250.5 114.802 250.2C144.431 249.905 166.115 235.462 176.801 220.607L177.302 219.9C187.77 204.846 189.293 188.996 189.302 188.9C189.377 188.3 189.396 187.7 189.4 187.1L189.401 186.5V78.5996C189.601 65.0999 178.802 53.9999 165.302 53.7998ZM267.602 41C253.187 41.0004 241.502 52.6854 241.502 67.0996C241.502 81.514 253.187 93.1998 267.602 93.2002C282.016 93.2001 293.702 81.5142 293.702 67.0996C293.702 52.6852 282.016 41.0001 267.602 41Z" fill="#907BF6"/>
</svg>
